<svg width="94" height="10" viewBox="0 0 94 10" fill="none" xmlns="http://www.w3.org/2000/svg">
<path d="M0.871704 9.00018V0.360176H4.2077C4.2917 0.360176 4.3857 0.364176 4.4897 0.372176C4.5977 0.376176 4.7057 0.388176 4.8137 0.408176C5.2657 0.476176 5.6477 0.634176 5.9597 0.882176C6.2757 1.12618 6.5137 1.43418 6.6737 1.80618C6.8377 2.17818 6.9197 2.59018 6.9197 3.04218C6.9197 3.49018 6.8377 3.90018 6.6737 4.27218C6.5097 4.64418 6.2697 4.95418 5.9537 5.20218C5.6417 5.44618 5.2617 5.60218 4.8137 5.67018C4.7057 5.68618 4.5977 5.69818 4.4897 5.70618C4.3857 5.71418 4.2917 5.71818 4.2077 5.71818H1.7537V9.00018H0.871704ZM1.7537 4.87818H4.1837C4.2557 4.87818 4.3397 4.87418 4.4357 4.86618C4.5317 4.85818 4.6257 4.84418 4.7177 4.82418C5.0137 4.76018 5.2557 4.63818 5.4437 4.45818C5.6357 4.27818 5.7777 4.06418 5.8697 3.81618C5.9657 3.56818 6.0137 3.31018 6.0137 3.04218C6.0137 2.77418 5.9657 2.51618 5.8697 2.26818C5.7777 2.01618 5.6357 1.80018 5.4437 1.62018C5.2557 1.44018 5.0137 1.31818 4.7177 1.25418C4.6257 1.23418 4.5317 1.22218 4.4357 1.21818C4.3397 1.21018 4.2557 1.20618 4.1837 1.20618H1.7537V4.87818Z" fill="black"/>
<path d="M14.7739 9.00018V0.360176H18.1099C18.1939 0.360176 18.2879 0.364176 18.3919 0.372176C18.4999 0.376176 18.6079 0.388176 18.7159 0.408176C19.1679 0.476176 19.5499 0.634176 19.8619 0.882176C20.1779 1.12618 20.4159 1.43418 20.5759 1.80618C20.7399 2.17818 20.8219 2.59018 20.8219 3.04218C20.8219 3.69418 20.6499 4.26018 20.3059 4.74018C19.9619 5.22018 19.4699 5.52218 18.8299 5.64618L18.5239 5.71818H15.6559V9.00018H14.7739ZM20.0059 9.00018L18.3019 5.48418L19.1479 5.16018L21.0199 9.00018H20.0059ZM15.6559 4.87818H18.0859C18.1579 4.87818 18.2419 4.87418 18.3379 4.86618C18.4339 4.85818 18.5279 4.84418 18.6199 4.82418C18.9159 4.76018 19.1579 4.63818 19.3459 4.45818C19.5379 4.27818 19.6799 4.06418 19.7719 3.81618C19.8679 3.56818 19.9159 3.31018 19.9159 3.04218C19.9159 2.77418 19.8679 2.51618 19.7719 2.26818C19.6799 2.01618 19.5379 1.80018 19.3459 1.62018C19.1579 1.44018 18.9159 1.31818 18.6199 1.25418C18.5279 1.23418 18.4339 1.22218 18.3379 1.21818C18.2419 1.21018 18.1579 1.20618 18.0859 1.20618H15.6559V4.87818Z" fill="black"/>
<path d="M32.5022 9.18018C31.6422 9.18018 30.9162 8.99018 30.3242 8.61018C29.7322 8.22618 29.2842 7.69618 28.9802 7.02018C28.6762 6.34418 28.5242 5.56418 28.5242 4.68018C28.5242 3.79618 28.6762 3.01618 28.9802 2.34018C29.2842 1.66418 29.7322 1.13618 30.3242 0.756176C30.9162 0.372176 31.6422 0.180176 32.5022 0.180176C33.3662 0.180176 34.0922 0.372176 34.6802 0.756176C35.2722 1.13618 35.7202 1.66418 36.0242 2.34018C36.3322 3.01618 36.4862 3.79618 36.4862 4.68018C36.4862 5.56418 36.3322 6.34418 36.0242 7.02018C35.7202 7.69618 35.2722 8.22618 34.6802 8.61018C34.0922 8.99018 33.3662 9.18018 32.5022 9.18018ZM32.5022 8.33418C33.1782 8.33418 33.7422 8.18018 34.1942 7.87218C34.6462 7.56418 34.9842 7.13618 35.2082 6.58818C35.4362 6.03618 35.5502 5.40018 35.5502 4.68018C35.5502 3.96018 35.4362 3.32618 35.2082 2.77818C34.9842 2.23018 34.6462 1.80218 34.1942 1.49418C33.7422 1.18618 33.1782 1.03018 32.5022 1.02618C31.8262 1.02618 31.2642 1.18018 30.8162 1.48818C30.3682 1.79618 30.0302 2.22618 29.8022 2.77818C29.5782 3.32618 29.4642 3.96018 29.4602 4.68018C29.4562 5.40018 29.5662 6.03418 29.7902 6.58218C30.0182 7.12618 30.3582 7.55418 30.8102 7.86618C31.2622 8.17418 31.8262 8.33018 32.5022 8.33418Z" fill="black"/>
<path d="M57.6875 9.00018V0.360176H58.5755L63.3335 7.44018V0.360176H64.2215V9.00018H63.3335L58.5755 1.91418V9.00018H57.6875Z" fill="black"/>
<path d="M75.9343 9.18018C75.2743 9.18018 74.6903 9.04418 74.1823 8.77218C73.6783 8.50018 73.2823 8.11618 72.9943 7.62018C72.7063 7.12418 72.5623 6.54418 72.5623 5.88018V0.366176L73.4503 0.360176V5.76618C73.4503 6.21418 73.5263 6.60218 73.6783 6.93018C73.8303 7.25418 74.0283 7.52218 74.2723 7.73418C74.5203 7.94218 74.7903 8.09618 75.0823 8.19618C75.3743 8.29618 75.6583 8.34618 75.9343 8.34618C76.2143 8.34618 76.5003 8.29618 76.7923 8.19618C77.0843 8.09618 77.3523 7.94218 77.5963 7.73418C77.8403 7.52218 78.0383 7.25418 78.1903 6.93018C78.3423 6.60218 78.4183 6.21418 78.4183 5.76618V0.360176H79.3063V5.88018C79.3063 6.54418 79.1623 7.12418 78.8743 7.62018C78.5863 8.11218 78.1883 8.49618 77.6803 8.77218C77.1763 9.04418 76.5943 9.18018 75.9343 9.18018Z" fill="black"/>
<path d="M89.9461 9.00018V1.20618H86.9281V0.360176H93.8461V1.20618H90.8281V9.00018H89.9461Z" fill="black"/>
<path d="M47.0151 3.88818L49.3851 0.360176H50.4591L47.5431 4.62618L50.5311 9.00018H49.4631L47.0151 5.37018V3.88818Z" fill="black"/>
<path d="M45.948 3.88818L43.578 0.360176H42.504L45.42 4.62618L43.926 6.81318L42.432 9.00018H43.5L45.948 5.37018V3.88818Z" fill="black"/>
</svg>
