<?xml version="1.0" encoding="UTF-8" standalone="no"?>
<!-- Created with Inkscape (http://www.inkscape.org/) -->

<svg
   width="208.48325mm"
   height="201.2525mm"
   viewBox="0 0 208.48325 201.2525"
   version="1.1"
   id="svg1923"
   inkscape:version="1.1.2 (0a00cf5, 2022-02-04)"
   sodipodi:docname="proxnut.svg"
   xmlns:inkscape="http://www.inkscape.org/namespaces/inkscape"
   xmlns:sodipodi="http://sodipodi.sourceforge.net/DTD/sodipodi-0.dtd"
   xmlns="http://www.w3.org/2000/svg"
   xmlns:svg="http://www.w3.org/2000/svg">
  <sodipodi:namedview
     id="namedview1925"
     pagecolor="#505050"
     bordercolor="#eeeeee"
     borderopacity="1"
     inkscape:pageshadow="0"
     inkscape:pageopacity="0"
     inkscape:pagecheckerboard="0"
     inkscape:document-units="mm"
     showgrid="false"
     inkscape:zoom="0.70710678"
     inkscape:cx="-183.14066"
     inkscape:cy="557.20014"
     inkscape:window-width="2560"
     inkscape:window-height="1412"
     inkscape:window-x="0"
     inkscape:window-y="0"
     inkscape:window-maximized="1"
     inkscape:current-layer="layer1"
     fit-margin-top="0"
     fit-margin-left="0"
     fit-margin-right="0"
     fit-margin-bottom="0" />
  <defs
     id="defs1920" />
  <g
     inkscape:label="Layer 1"
     inkscape:groupmode="layer"
     id="layer1"
     transform="translate(12.979886,-32.583393)">
    <path
       style="fill:none;stroke:#000000;stroke-width:1.365;stroke-linecap:butt;stroke-linejoin:miter;stroke-miterlimit:4;stroke-dasharray:none;stroke-opacity:1"
       d="m 90.453738,124.90471 c -0.516297,-1.71052 1.3335,-17.31841 4.64426,-16.30777 2.570036,0.78452 3.688242,2.61106 5.643702,4.24061 3.33361,2.77801 6.76282,5.16694 8.78545,9.2122"
       id="path2225" />
    <path
       style="fill:none;stroke:#000000;stroke-width:1.365;stroke-linecap:butt;stroke-linejoin:miter;stroke-miterlimit:4;stroke-dasharray:none;stroke-opacity:1"
       d="m 112.99135,116.28974 c 0.44496,-1.04242 0.2504,-2.21936 0.4064,-3.33112 0.18772,-1.33789 0.40394,-2.74255 0.83837,-4.02307 0.058,-0.17109 0.067,-0.56223 0.17735,-0.70939 0.41404,-0.55206 0.71567,-0.57355 1.30055,-0.76851 0.12127,-0.0404 0.23994,-0.1748 0.3547,-0.23647 0.41255,-0.22169 1.28575,0.50826 1.43426,0.66727 1.88252,2.01558 3.3708,4.45996 4.88744,6.7573 0.32129,0.48668 1.40736,2.70858 2.0913,3.05053"
       id="path2229" />
    <path
       style="fill:none;stroke:#000000;stroke-width:1.365;stroke-linecap:butt;stroke-linejoin:miter;stroke-miterlimit:4;stroke-dasharray:none;stroke-opacity:1"
       d="m 99.690009,132.64048 c 2.839771,1.47887 6.875131,5.84935 10.265071,5.09259 3.11932,-0.69634 5.2586,-3.66949 6.95,-6.11403"
       id="path2231" />
    <path
       style="fill:none;stroke:#000000;stroke-width:1.365;stroke-linecap:butt;stroke-linejoin:miter;stroke-miterlimit:4;stroke-dasharray:none;stroke-opacity:1"
       d="m 93.934033,218.44632 c 0.255521,0.28615 -1.093653,13.42893 -0.771946,13.51042 6.612517,1.67504 0.7712,0.21557 5.745361,0.72372 1.108932,0.11328 4.425212,0.47293 3.310512,0.47293"
       id="path2239" />
    <path
       style="fill:none;stroke:#000000;stroke-width:1.365;stroke-linecap:butt;stroke-linejoin:miter;stroke-miterlimit:4;stroke-dasharray:none;stroke-opacity:1"
       d="m 120.64205,221.86121 c -0.0661,6.26696 -2.073,11.4981 5.74712,10.44056 1.43992,-0.19472 2.3263,-0.48138 3.7671,-0.48138"
       id="path2241" />
    <path
       style="fill:none;stroke:#000000;stroke-width:1.365;stroke-linecap:butt;stroke-linejoin:miter;stroke-miterlimit:4;stroke-dasharray:none;stroke-opacity:1"
       d="m 52.586178,186.57201 c 16.646649,-14.89729 20.237672,-19.25059 21.071043,-26.58366 0.833371,-7.33307 2.840437,-10.96162 -6.062792,-17.78426 -8.903229,-6.82264 -18.052796,-11.86207 -18.052796,-11.86207 0,0 -5.611281,21.16439 -4.23169,26.3896 1.37959,5.2252 3.483586,18.50797 4.480568,21.26761 0.996979,2.75965 2.795667,8.57278 2.795667,8.57278 z"
       id="path2606" />
    <path
       style="fill:#88aa00;stroke:#000000;stroke-width:1.565;stroke-linecap:butt;stroke-linejoin:miter;stroke-miterlimit:4;stroke-dasharray:none;stroke-opacity:1"
       d="m 49.541633,130.34202 c -20.264805,-11.6806 -26.736908,-12.81682 -28.772868,-11.6806 -2.03596,1.13623 -7.688921,8.94226 -7.688921,12.54405 0,3.60179 -5.134858,36.22569 -3.4908028,42.29365 1.6440548,6.06796 0.9538268,15.58487 9.9394958,20.7871 8.985669,5.20223 23.030451,12.60559 25.949517,8.76745 2.919068,-3.83814 7.108124,-16.48166 7.108124,-16.48166 0,0 -6.543228,-24.91582 -6.543228,-27.36629 0,-2.45046 3.498683,-28.8637 3.498683,-28.8637 z"
       id="path2608" />
    <path
       style="fill:#d38d5f;fill-opacity:1;stroke-width:10.5727;stroke-miterlimit:4;stroke-dasharray:none;stop-color:#000000"
       d="m 402.49548,831.81172 c -37.8828,-4.55684 -61.7563,-10.18717 -80.09795,-18.89033 -47.52065,-22.54863 -92.6387,-59.78947 -111.99795,-92.44409 l -7.66953,-12.93675 32.01662,-31.58209 c 39.05383,-38.52381 43.26756,-45.47696 48.00123,-79.20767 3.4333,-24.46462 2.065,-32.45652 -7.75994,-45.32384 -7.08069,-9.2733 -34.23058,-29.93176 -62.66134,-47.67926 -11.09656,-6.92687 -20.17556,-13.21897 -20.17556,-13.98245 0,-0.76348 7.98213,-13.34298 17.73806,-27.95444 43.5308,-65.1961 76.5,-89.73826 131.7359,-98.06374 21.9934,-3.31498 37.63334,-3.33354 60.57032,-0.0719 36.97687,5.25813 62.92039,12.10858 72.97752,19.26989 12.43775,8.85646 18.99362,36.24981 19.57487,81.79239 0.37025,29.01165 0.29507,29.65857 -4.60721,39.64134 -6.86185,13.97309 -23.2611,28.77739 -41.65428,37.60305 -14.67533,7.04172 -28.81349,10.44862 -67.86284,16.35307 -35.08854,5.30555 -50.18602,14.61694 -54.42708,33.568 -2.96508,13.24936 0.52808,29.29056 11.11018,51.01995 14.49689,29.76805 48.77551,58.35403 69.97469,58.35403 9.46945,0 20.406,-4.96806 56.72315,-25.76724 15.63082,-8.95192 32.64679,-17.89039 37.81326,-19.86329 11.70516,-4.46978 22.3531,-3.52593 35.61918,3.1573 15.50094,7.80912 49.87633,31.59085 54.60211,37.77505 6.98595,9.14193 9.67996,20.9644 10.72799,47.07903 0.81578,20.32723 0.49838,25.12346 -1.97979,29.91571 -13.45633,26.02168 -61.44918,50.35866 -115.49395,58.56653 -20.91651,3.17663 -54.77615,3.04239 -82.79766,-0.32826 z M 424.5023,520.15737 c 6.20412,-3.1651 19.67945,-17.93253 19.67945,-21.56642 0,-4.51634 -5.66722,-1.52059 -14.31443,7.56673 -13.33124,14.00977 -18.20791,14.15846 -38.00869,1.15887 -11.40328,-7.48647 -14.40794,-8.7685 -15.70949,-6.70294 -1.83921,2.9188 1.4944,5.8716 18.52261,16.4068 12.45885,7.70816 19.43273,8.44153 29.83055,3.13696 z m -81.31157,-47.85062 c 0.9831,-0.72227 2.05069,-5.73716 2.37243,-11.1442 0.78068,-13.11987 5.35314,-35.3117 8.54913,-41.49206 1.41687,-2.73993 3.73467,-4.98169 5.15067,-4.98169 5.26247,0 45.06731,35.88558 50.42593,45.4609 1.33549,2.38641 2.61334,2.81307 4.78509,1.59769 2.644,-1.47966 2.37898,-2.53996 -2.46148,-9.84771 -4.87772,-7.36403 -29.09001,-29.81296 -43.57383,-40.40041 -8.77854,-6.41698 -15.16415,-4.83549 -20.09565,4.97698 -4.63698,9.22647 -9.6299,34.03104 -9.62456,47.81434 0.004,9.1718 0.84542,10.68076 4.47227,8.01616 z m 128.32804,-27.8093 c 0.89986,-2.34497 -16.92052,-30.56808 -24.18241,-38.29904 -6.44877,-6.86531 -15.69941,-4.47756 -18.96694,4.89569 -3.49034,10.01243 -4.62539,27.03488 -1.91438,28.71037 3.06364,1.89344 5.15069,-1.16441 5.18719,-7.60003 0.0565,-9.9728 3.82541,-22.87799 6.68137,-22.87799 3.28742,0 4.98025,1.97687 16.78851,19.60551 12.96358,19.35342 14.42211,20.73717 16.40666,15.56549 z"
       id="path10316"
       transform="scale(0.26458333)" />
    <path
       style="fill:#d38d5f;fill-opacity:1;stroke:#000000;stroke-width:3.77953;stroke-miterlimit:4;stroke-dasharray:none;stroke-opacity:1;stop-color:#000000"
       d="M 416.46717,833.03176 C 368.22206,828.67327 342.78056,822.54187 314.5915,808.47972 268.84034,785.65669 228.43101,750.46842 206.57697,714.42115 l -4.13205,-6.81563 31.04897,-30.80691 c 40.91121,-40.59226 45.2459,-47.9744 49.60587,-84.48056 4.05571,-33.95858 -3.14686,-43.38344 -64.43718,-84.31864 -13.43697,-8.97443 -24.8705,-17.02849 -25.40784,-17.89793 -1.11256,-1.80016 25.81523,-42.3981 39.49867,-59.55054 11.30257,-14.168 32.60054,-34.76857 43.89128,-42.45408 28.85832,-19.64361 73.33854,-29.65403 113.19235,-25.47433 10.71917,1.12419 21.4681,2.42656 23.88648,2.89417 2.41839,0.46761 7.64669,1.32293 11.61844,1.90071 13.28872,1.93316 39.31252,9.93817 47.17283,14.51053 14.31474,8.3269 19.66158,28.12612 21.17028,78.39288 0.98733,32.89588 0.88711,34.27619 -3.0497,42.00512 -8.53957,16.76523 -21.54333,28.83133 -42.01553,38.98587 -13.13911,6.51721 -24.33934,9.46209 -58.6908,15.43154 -40.91554,7.11012 -53.24351,12.52313 -60.49716,26.5633 -12.99531,25.15375 9.21401,76.89338 44.07963,102.68953 19.26052,14.25033 31.90099,17.5448 46.76177,12.18745 3.81022,-1.37358 23.2743,-11.34724 43.25349,-22.16365 40.57231,-21.96521 47.81704,-24.56661 60.60529,-21.76181 9.93708,2.17944 39.18464,19.26689 55.89603,32.6564 15.47595,12.39966 19.07906,19.90823 21.63158,45.07839 2.77568,27.3708 1.55524,38.07619 -5.45332,47.83544 -15.20348,21.17046 -57.08674,41.85939 -101.88899,50.32971 -18.32726,3.46496 -55.93746,4.85325 -77.85019,2.87365 z m 4.98199,-311.7335 c 5.89085,-2.48372 22.73259,-19.16993 22.73259,-22.52265 0,-3.52002 -4.69863,-1.85869 -9.79865,3.46457 -2.80781,2.93073 -8.17668,7.4572 -11.93082,10.05882 -8.70252,6.03085 -13.62444,5.16509 -31.16001,-5.481 -7.22007,-4.38342 -13.60379,-7.19905 -14.18604,-6.25696 -1.63805,2.65044 0.32182,4.73492 11.74624,12.49311 16.56434,11.24861 22.13128,12.65657 32.59669,8.24411 z m -76.97611,-55.81102 c 6.87534,-37.56291 8.60469,-44.49908 11.92166,-47.81604 3.56688,-3.56689 3.57462,-3.56456 13.78656,4.14552 5.61971,4.24293 17.73104,15.30143 26.91404,24.57444 12.38067,12.50202 16.97098,16.14447 17.75869,14.0917 1.5304,-3.98815 -4.14891,-11.11963 -23.25634,-29.20285 -19.17914,-18.1511 -31.38972,-25.76339 -36.3364,-22.65274 -5.51089,3.46545 -9.55112,12.64225 -13.06675,29.67924 -4.03195,19.53913 -4.61706,36.04509 -1.23809,34.92635 1.22887,-0.40686 2.81136,-3.89239 3.51663,-7.74562 z M 470.99353,443.9779 c 0,-4.28485 -22.36931,-37.63628 -26.85248,-40.0356 -10.24417,-5.48251 -16.87597,2.99463 -18.93638,24.20554 -1.07108,11.02627 -0.90589,11.87019 2.20673,11.27342 2.62875,-0.504 3.61187,-2.79011 4.49583,-10.45444 1.28954,-11.18092 4.21485,-19.64037 6.79173,-19.64037 2.02853,0 7.16484,6.37211 19.81095,24.57746 8.89074,12.79911 12.48362,15.69848 12.48362,10.07399 z"
       id="path10392"
       transform="scale(0.26458333)" />
    <path
       style="fill:#d38d5f;fill-opacity:1;stroke:none;stroke-width:0.261407;stroke-miterlimit:4;stroke-dasharray:none;stop-color:#000000"
       d="m 197.84936,688.94297 c 0,-0.15799 0.008,-0.22262 0.0178,-0.14363 0.01,0.079 0.01,0.20827 0,0.28727 -0.01,0.079 -0.0178,0.0144 -0.0178,-0.14364 z"
       id="path11644"
       transform="scale(0.26458333)" />
    <path
       style="fill:none;stroke:#000000;stroke-width:1.265;stroke-linecap:butt;stroke-linejoin:miter;stroke-miterlimit:4;stroke-dasharray:none;stroke-opacity:1"
       d="m 50.136861,134.43303 c 3.097366,2.07405 5.85334,4.56529 8.757907,6.88923 0.33828,0.27065 0.679852,0.5975 1.028988,0.8419 0.05266,0.0369 0.131966,0.0137 0.187087,0.0468 0.470344,0.2822 0.890175,0.72622 1.309621,1.07576 1.191882,0.99323 -0.43222,-0.40386 0.75765,0.52069 0.509688,0.39604 1.014296,0.85442 1.508242,1.27136 0.70539,0.59542 1.266743,1.35977 1.964431,1.96443 1.142187,0.9899 2.339419,2.1753 3.09273,3.51507 0.592463,1.05371 0.984401,2.311 1.315799,3.4709 0.0514,0.17989 -0.0232,0.37562 0,0.56126 0.04698,0.37581 0.142851,0.74652 0.187087,1.12254 0.162618,1.38224 -0.111784,3.79462 -0.563115,5.14861 -0.599435,1.7983 -1.159928,3.67732 -2.172917,5.2981 -0.48224,0.77158 -1.177544,1.47675 -1.777344,2.15152 -0.87104,0.97992 0.11204,-0.0703 -0.420949,0.60804 -0.533964,0.67959 -1.186887,1.32992 -1.824115,1.91766 -1.052824,0.97106 -2.120151,1.92645 -3.161448,2.9099 -0.678555,0.64086 -1.414661,1.17899 -2.076429,1.84076 -0.55731,0.55731 -0.969176,1.2131 -1.486992,1.79736 -1.048158,1.18265 -2.49578,1.94917 -3.539199,3.14165 -0.295489,0.3377 -1.246336,1.38567 -1.381927,1.70446 -0.0421,0.099 -0.475657,0.76971 -0.516662,0.67964 -0.397693,-0.87349 0.183105,-0.6322 1.022337,-0.62782"
       id="path14207" />
    <path
       style="fill:#88aa00;fill-opacity:1;stroke:none;stroke-width:1.69037;stroke-miterlimit:4;stroke-dasharray:none;stop-color:#000000"
       d="m 200.3485,698.93813 c -0.17307,-0.46583 -0.76457,-2.70413 -1.31445,-4.974 l -0.99977,-4.12703 1.73932,-2.06015 c 3.37384,-3.99614 5.68494,-6.25776 9.88356,-9.67192 4.77675,-3.88427 6.55872,-5.64954 9.78211,-9.69036 1.23129,-1.54354 3.59105,-3.99534 5.24391,-5.44846 11.51165,-10.1205 24.74874,-22.86256 24.74874,-23.82323 0,-0.19531 1.08618,-1.56943 2.41373,-3.05359 5.13996,-5.74632 7.02936,-8.74937 9.72544,-15.45783 2.06956,-5.14954 4.64157,-13.09634 5.33418,-16.48114 1.92763,-9.4204 1.50508,-19.3133 -1.17223,-27.44504 -1.78369,-5.41757 -4.34304,-10.34909 -7.25959,-13.98826 -2.71164,-3.38348 -17.38733,-17.5934 -21.21636,-20.543 -1.51459,-1.16672 -3.88782,-3.0518 -5.27385,-4.18906 -1.38603,-1.13725 -2.99893,-2.315 -3.58423,-2.61721 -0.5853,-0.30221 -5.4394,-4.15459 -10.7869,-8.56086 -13.83228,-11.3976 -19.74022,-16.03173 -25.17644,-19.74812 l -1.66515,-1.13835 -1.28667,1.86334 -1.28666,1.86335 0.22281,-1.94454 c 0.12255,-1.0695 0.47814,-3.8931 0.79022,-6.27467 l 0.5674,-4.33013 1.10094,0.66451 c 0.60551,0.36547 4.36246,2.62035 8.34877,5.01082 18.25283,10.94569 39.13863,25.00011 53.20979,35.80579 16.36274,12.56545 23.52928,21.62154 25.67851,32.44898 0.60452,3.04548 0.5223,11.58223 -0.15967,16.57776 -0.30528,2.23623 -1.12638,8.28199 -1.82467,13.43503 -0.69828,5.15304 -1.66194,10.92852 -2.14144,12.8344 -2.29828,9.13485 -6.32404,17.05789 -13.39824,26.36894 -9.33949,12.29263 -28.44504,31.29911 -59.14375,58.83711 l -0.78468,0.70388 z"
       id="path17637"
       transform="scale(0.26458333)" />
    <path
       style="fill:#d38d5f;fill-opacity:1;stroke:none;stroke-width:1.69037;stroke-miterlimit:4;stroke-dasharray:none;stop-color:#000000"
       d="m 196.05946,682.45103 c -0.20637,-0.73174 -3.06287,-12.06961 -6.34778,-25.19528 -9.57392,-38.25493 -12.50157,-51.53414 -12.44773,-56.46031 0.0359,-3.28289 1.05216,-12.84105 3.60152,-33.87258 1.50584,-12.42279 6.89408,-54.93204 7.14114,-56.33841 0.16306,-0.92821 8.65532,5.52262 25.53964,19.40024 5.83363,4.7948 11.32254,9.16792 12.19759,9.71804 0.87504,0.55013 2.65851,1.91885 3.96326,3.04159 1.30475,1.12275 2.73664,2.23352 3.18198,2.46839 2.58443,1.36296 20.09999,18.30244 22.63127,21.88693 3.76641,5.33351 6.22707,12.09549 7.18963,19.75737 0.99439,7.91519 0.17226,14.47456 -3.0193,24.08953 -3.72316,11.21652 -5.97003,15.48453 -11.35039,21.56047 -1.63583,1.84732 -3.40693,3.99516 -3.93579,4.77297 -1.44156,2.12021 -11.42295,11.68487 -20.27273,19.42633 -4.73224,4.1396 -6.48109,5.89639 -9.34582,9.38828 -3.20192,3.9029 -4.23134,4.89951 -9.01788,8.73046 -1.94454,1.55633 -4.84005,4.2082 -6.43446,5.89304 l -2.89893,3.06336 z"
       id="path21769"
       transform="scale(0.26458333)" />
    <path
       style="fill:none;stroke:#000000;stroke-width:2.165;stroke-linecap:butt;stroke-linejoin:miter;stroke-miterlimit:4;stroke-dasharray:none;stroke-opacity:1"
       d="m 60.270778,154.8995 c -7.240767,-4.24776 -11.333466,-12.05038 -15.326608,-19.11129 -3.56403,-6.30214 -7.122218,-13.13431 -8.23318,-20.38262 -0.15117,-0.98629 0.123761,-2.00331 0,-2.99341 -0.32747,-2.61976 -0.374179,-5.1503 -0.374179,-7.85773"
       id="path21974" />
    <text
       xml:space="preserve"
       style="font-size:42.3333px;line-height:1.25;font-family:sans-serif;letter-spacing:0px;word-spacing:0px;stroke-width:0.264583"
       x="-12.979886"
       y="71.609406"
       id="text24101"><tspan
         sodipodi:role="line"
         id="tspan24099"
         style="font-style:normal;font-variant:normal;font-weight:normal;font-stretch:normal;font-size:42.3333px;font-family:'Farmhouse Children';-inkscape-font-specification:'Farmhouse Children';stroke-width:0.264583"
         x="-12.979886"
         y="71.609406">proxnut</tspan></text>
  </g>
</svg>
